<?xml version="1.0" encoding="UTF-8"?>
<svg id="Layer_1" data-name="Layer 1" xmlns="http://www.w3.org/2000/svg" viewBox="0 0 643.93 626.67">
  <defs>
    <style>
      .cls-1 {
        fill: #15284a;
      }

      .cls-1, .cls-2 {
        fill-rule: evenodd;
      }

      .cls-2 {
        fill: #bd1b24;
      }
    </style>
  </defs>
  <path class="cls-1" d="M179.52,229.77l-1.05,17.51,79.54.15c9.92-30.72,70.9-203.02,70.91-203.77l-.1-36.93c-21.7-1.06-43.19-2.16-64.98-3.12-9.6-.42-58.44-1.68-63.62-3.62h-4.96l-1.12,21.19-9.86,136.28-1.06,15.03-.95,14.32-.8,14.32h.06l-.18,2.15-1,11.79-.83,14.69h0ZM64.28,257.48c-2.47-.27-4.82-.55-7.01-.83l-14.35-1.47-15.73-1.24c-.1,0-.2-.01-.31-.02l-12.53-1.66-13.21-1.34c-1.15,1.33-1.5-2.22-.76,3.18,2.38,2.22,1.84,2.61,5.17,4.92,2.43,1.69,4.21,2.55,6.18,4.55,3.35,3.41,4.02,12.22,6.65,14.8,4.6,4.51,5.31-1.25,22,20.96,3.57,4.74,7.12,6.29,10.16,11.32,5.37,8.92,1.18,5.72,11.31,10.15,4.14,1.81,8.93,6.81,11.56,9.92,3.81,4.53,6.95,6.45,6.65,15.01,5.17,3.9,3.2,3.07,5.62,9.22,1.87,4.75,2.58,7.28,1.72,12.52-2.08,12.57,2.46,13.55,6.53,22.18,3.59,7.62-.22,3.78,7.08,7.97,2.81,1.61,5.27,4.57,7.33,7.01,11.52,13.63,7.87,7.23,18.32,10.99,2.05.74,10.69,9.13,16.83,13.25,11.87,7.95,14.03,4.82,19.04-.5,6.59-7.01,7.65-7.4,11.6-17.76,3.11-8.15,5.52-14.85,12.42-17.77.71-1.42,4.01-2.04,6.46-2.28,6.71-.66,2.49-.48,6.68-2.13,2.33-3.55,8.62-2.54,12.72-.71l6.1-18.66-154.21-111.59h0ZM298.67,461.24c1.2,3.31-.35.51,2.72,3.7,3.74,3.88,4.64,13.51,6.18,18.93,2.41,8.48,4.45,3.83,8.86,8.25,1.88,1.88,4.62,7.99,6.42,10.75,2.23,3.43,4.32,6.24,6.65,9.83,3.75,5.79,1.55,5.89,8.37,8.83,14.74,6.35,7.56,19.26,9.22,23.6.84,2.21,2.79,2.07,3.01,6.04.16,2.98-1.24,4.15-1.83,6.44.34,3.18,12.44,9.47,13.54,30.06,1.55,4.09,4.3.99,4.99,7.94l5.4.5c8.94,1.08,10.28,3.31,14.76,8.31,8.79.44,11.19,1.73,16.63,5.99,6.7,5.24,3.48,5.97,15.78,4.92,17.04-1.46,17.89-1.34,31.3,11.34.33-.16,4.19-2.65,4.68-3.21-2.93-6.71.77-12.65-3.33-19.25-4.76-7.66-4.18-7.87-4.73-18-.54-9.9-5.97-9.03-6.98-16.07-1.33-9.3,5.7-6.35,6.06-15.87l-12.66-1.92c.81-10.2-3.66-6.77-3.07-17.7,8.72,1.44,8.97,6.58,19.21,6.31.29-1.01.58-1.94.87-2.79l-128.77-93.93-23.29,16.99h0ZM466.25,493.85l-40.81-124.78,168.65-122.04-208.18.4-37.36-115.74c4.9.37,9.85-2.11,15.5-.43,1.12,3.65.01,9.47,3.04,11.69,2.89,2.12,14.59.54,25.64,4.49,4.79,1.71,6.9,4.31,9.98,5.55,5.55-2.81,5.84-4.89,14.32-4.24.12.15.26.22.3.5l2.38,4.8c1.67,1.91,2.93,1.61,5.13,2.7.63,3.98,1.09,5.54,3.22,8.22,8.3.55,9.58-3.91,14.02-6.49,3.91,1.6,5.19,4.36,6.91,8.38,6.43.43,6.78-.4,11.71-1.32,1.44,3.4,1.65,9.74,9.04,5.96,4.42-2.26,3.98-7.68,7.21-9.97,2.06-.41,5.24,2.62,10.23,3.21,4.42-.2,3.89-1.67,6.77.93,2.5,2.26,3.47,3.15,7.11,4.22l6.88,4.77c3.97-4.01,6.28-4.58,11.24-8.12,8.2-5.85,8.1.06,14.37-2,8.61-2.83,3.62-5.55,12.99-2.07,6.7,2.49,10.8,1.33,14.08-2.98,10.88,1.42,8.67,11.34,20.24,10.98,1.66,4.74,4.59,3.96,9.77,4.61,7.13.89,5.1,2.22,8.22,6.63,4.51-1.39,8.96-3.14,14.32-1.35,1.74,3.57,1.39,12.01,1.54,16.45l1.25,20.44c.04.14.12.39.21.56-1.18,3.29-.42,8.16-.24,11.93.33,4.82-.46,25.08,1.19,27.48-2.61,19.8,7.94,18.15,10.37,24.14,4.11,10.12-2.18,5.06,1.64,12.59,2.23,4.41,3.76,7.4,7.58,9.53-.03,9.18,1.13,5.16,7.26,17.63v16.71c-7.1,6.78-9.81,22.33-7.58,34.93,1.92,10.86,1.93,5.73-4.66,12.95-4.06,4.44-6.18,8.16-4.16,15.82-5.38,2.94-8.55,1.03-15.88,6.36-.94.69-2.57,1.92-3.51,2.27-3.27,1.23-1.32.26-3.85-.56-3.79-1.23-6.53.58-10.75.97l.24-11.14c-8.24-4.65-8.35-2.61-13.53,3.53-1.37-.66-.1,0-1.25-.91-1.33-1.06-.34-.62-1.63-1.31-1.71-.92-2.52-.92-4.19.09-6.5,3.99,2.81,20.41,3.95,25.03-2.18,2.29-2.75,2.56-4.79,4.97-2.18,2.58-3.8,1.99-6.17,3.89-3.17,3.61,2.96,3.55-6.72,13.25l-.32.32-.55.64c-.04.05-.18.2-.25.32-9.17,3.68-11.19,8.58-17.42,9.34-14.11,1.74-11.82,2.84-14.43,5.02-.11.09-.29.21-.4.29l-3.09,3.05c-3.4-.13-.48-.27-2.42-.65-1.79-.36-.98-.16-2.94-.03-.64-4.31-1.86-4.69-6.51-3.55-5.03,1.23-4.19,1.28-4.8-4.47-4.11.5-5.95,1.2-6.66,4.56-10.72-6.19-14.75.12-7.54,9.65,3.27,4.33,1.2,3.77,2.29,7.22.36,1.15.75.14,1.01,2.3-7.09.68-7.01-4.36-11.32-6.7-6.04,9.1-1.96,5.78-2.85,15.51-4.5-1.23-6.58.38-10.21,1.96-2.44,1.06-3.72,1.06-4.77,1.04Z"/>
  <path class="cls-2" d="M321.97,103.86l51.76,160.35,168.49-.33-136.5,98.78,52.38,160.14-136.12-99.3-136.12,99.3,52.38-160.14-136.5-98.78,168.49.33,51.76-160.35h0ZM400.4,412.59c2.13-6.3,5.54-4.43,3.32-10.38-2.18-5.84-8.03-4.58-15.43-4.61l1.33-29.96c1.59-11.09-1.01-8.71-11.53-9.65-6.47-25.62-8.19-37.2-24.73-49.27-20.13-14.68-7.51-1.79-17.17-18.95-4.74-8.43-6.49-16.79-2.14-30.59-3.57-4.2-6.33-5.55-9.73-8-.91-21.88,3.75-36.85-4.47-37.11,0,43.56,3.01,33.58-9.95,45.11,3.1,9.63,3.7,20.37-1.35,29.28-6.99,12.33-1.81,8.82-8.25,14.08-17.72,14.46-24.09,8.04-34.34,55.53-17.91,1.51-10.34-3.8-10.34,37.04-.48.34-1.21.55-1.63.71l-3.32,1.2c-7.52,2.32-14.5.12-9.46,11.59.62,1.41,1.15,2.73,1.6,3.98h11.26v-.14c1.39.11,2.53.13,3.47.14-.94,0-2.08-.03-3.46-.14,1.38.11,2.53.13,3.46.14h142.87Z"/>
  <path class="cls-2" d="M271.01,397.43c4.22-5.42,2.6-6.41,2.6-22.31,0-12.35-8.1-10.7-8.1,0,0,27.11-2.06,20.89,5.51,22.31h0ZM370.2,381.09l.06,16.39c12.01-.69,8.29-2.3,8.24-16.4-.02-7.13,2.12-15.47-5.27-14.34-3.24,4.09-3.15,1.25-3.03,14.35h0ZM353,375.12c0,28.99-1.28,19.79,3.96,22.36,5.11-2.57,3.86,6.46,3.86-22.36,0-7.12.09-7.17-5.21-9.16-3.04,4.23-2.6,1-2.6,9.16h0ZM335.42,381.09c-.06,13.65-3.72,15.71,7.83,16.4,0-5.47,0-10.93.05-16.4.19-18.24-7.79-21.64-7.88,0h0ZM317.91,381.09c.03,10.56-3.19,14.2,5.06,16.37,5.29-6.05,4.77-24.61,0-31.23-7.7,3.29-5.09,4.72-5.06,14.86h0ZM303.31,366.69c-4.42,6.15-2.66,19.38-2.66,30.79,11.53-.73,7.91-2.81,7.84-16.41-.04-7.24.88-14.88-5.18-14.39h0ZM283.13,375.12c0,28.83-1.25,19.8,3.87,22.36,4.95-2.5,3.9,5.75,3.83-16.4-.03-9.75,2.32-12.48-5.02-15.05-3.24,4.22-2.68.82-2.68,9.08Z"/>
</svg>